<svg version="1.1" xmlns="http://www.w3.org/2000/svg" xmlns:xlink="http://www.w3.org/1999/xlink" width="1009.15625" height="1172"><defs/><g><g transform="translate(-254,-166) scale(1,1)"><rect fill="#C0C0C0" stroke="none" x="535" y="1095" width="160" height="96" opacity="0.2"/></g><g transform="translate(-254,-166) scale(1,1)"><rect fill="#ffffff" stroke="none" x="528" y="1088" width="160" height="96"/></g><g transform="translate(-254,-166) scale(1,1)"><path fill="none" stroke="#000000" d="M 528 1088 L 688 1088 L 688 1184 L 528 1184 L 528 1088 Z Z" stroke-miterlimit="10"/></g><g transform="translate(-254,-166) scale(1,1)"><path fill="none" stroke="#000000" d="M 528 1113 L 688 1113" stroke-miterlimit="10"/></g><g transform="translate(-254,-166) scale(1,1)"><path fill="none" stroke="#000000" d="M 528 1123 L 688 1123" stroke-miterlimit="10"/></g><g transform="translate(-254,-166) scale(1,1)"><g><path fill="none" stroke="none"/><text fill="#000000" stroke="none" font-family="Arial" font-size="13px" font-style="normal" font-weight="bold" text-decoration="none" x="544.421875" y="1105.471923828125">XRemoteDatasource</text></g></g><g transform="translate(-254,-166) scale(1,1)"><g><path fill="none" stroke="none"/><text fill="#000000" stroke="none" font-family="Arial" font-size="13px" font-style="normal" font-weight="normal" text-decoration="none" x="533" y="1138.7099609375">+getX(): XModel</text></g></g><g transform="translate(-254,-166) scale(1,1)"><g><path fill="none" stroke="none"/><text fill="#000000" stroke="none" font-family="Arial" font-size="13px" font-style="normal" font-weight="normal" text-decoration="none" x="533" y="1153.7099609375">+setX(): XModel</text></g></g><g transform="translate(-254,-166) scale(1,1)"><rect fill="#C0C0C0" stroke="none" x="719" y="1239" width="88" height="96" opacity="0.2"/></g><g transform="translate(-254,-166) scale(1,1)"><rect fill="#ffffff" stroke="none" x="712" y="1232" width="88" height="96"/></g><g transform="translate(-254,-166) scale(1,1)"><path fill="none" stroke="#000000" d="M 712 1232 L 800 1232 L 800 1328 L 712 1328 L 712 1232 Z Z" stroke-miterlimit="10"/></g><g transform="translate(-254,-166) scale(1,1)"><path fill="none" stroke="#000000" d="M 712 1257 L 800 1257" stroke-miterlimit="10"/></g><g transform="translate(-254,-166) scale(1,1)"><path fill="none" stroke="#000000" d="M 712 1310 L 800 1310" stroke-miterlimit="10"/></g><g transform="translate(-254,-166) scale(1,1)"><g><path fill="none" stroke="none"/><text fill="#000000" stroke="none" font-family="Arial" font-size="13px" font-style="normal" font-weight="bold" text-decoration="none" x="732.88818359375" y="1249.7099609375">XModel</text></g></g><g transform="translate(-254,-166) scale(1,1)"><g><path fill="none" stroke="none"/><text fill="#000000" stroke="none" font-family="Arial" font-size="13px" font-style="normal" font-weight="normal" text-decoration="none" x="717" y="1272.471923828125">-prop1</text></g></g><g transform="translate(-254,-166) scale(1,1)"><g><path fill="none" stroke="none"/><text fill="#000000" stroke="none" font-family="Arial" font-size="13px" font-style="normal" font-weight="normal" text-decoration="none" x="717" y="1287.53857421875">-prop2</text></g></g><g transform="translate(-254,-166) scale(1,1)"><g><path fill="none" stroke="none"/><text fill="#000000" stroke="none" font-family="Arial" font-size="13px" font-style="normal" font-weight="normal" text-decoration="none" x="717" y="1301.49755859375">-propn</text></g></g><g transform="translate(-254,-166) scale(1,1)"><path fill="none" stroke="#000000" d="M 658 1185 L 711 1236" stroke-miterlimit="10"/></g><g transform="translate(-254,-166) scale(1,1)"><rect fill="#C0C0C0" stroke="none" x="655" y="775" width="208" height="90" opacity="0.2"/></g><g transform="translate(-254,-166) scale(1,1)"><rect fill="#ffffff" stroke="none" x="648" y="768" width="208" height="90"/></g><g transform="translate(-254,-166) scale(1,1)"><path fill="none" stroke="#000000" d="M 648 768 L 856 768 L 856 858 L 648 858 L 648 768 Z Z" stroke-miterlimit="10"/></g><g transform="translate(-254,-166) scale(1,1)"><path fill="none" stroke="#000000" d="M 648 793 L 856 793" stroke-miterlimit="10"/></g><g transform="translate(-254,-166) scale(1,1)"><path fill="none" stroke="#000000" d="M 648 803 L 856 803" stroke-miterlimit="10"/></g><g transform="translate(-254,-166) scale(1,1)"><g><path fill="none" stroke="none"/><text fill="#000000" stroke="none" font-family="Arial" font-size="13px" font-style="normal" font-weight="bold" text-decoration="none" x="713.714111328125" y="785.7099609375">XRepository</text></g></g><g transform="translate(-254,-166) scale(1,1)"><g><path fill="none" stroke="none"/><text fill="#000000" stroke="none" font-family="Arial" font-size="13px" font-style="normal" font-weight="normal" text-decoration="none" x="653" y="818.7099609375">+getX(): Either&lt;Failure; XEntity&gt;</text></g></g><g transform="translate(-254,-166) scale(1,1)"><g><path fill="none" stroke="none"/><text fill="#000000" stroke="none" font-family="Arial" font-size="13px" font-style="normal" font-weight="normal" text-decoration="none" x="653" y="833.7099609375">+setX(): Either&lt;Failure; XEntity&gt;</text></g></g><g transform="translate(-254,-166) scale(1,1)"><rect fill="#C0C0C0" stroke="none" x="647" y="935" width="219.99609375" height="88" opacity="0.2"/></g><g transform="translate(-254,-166) scale(1,1)"><rect fill="#ffffff" stroke="none" x="640" y="928" width="219.99609375" height="88"/></g><g transform="translate(-254,-166) scale(1,1)"><path fill="none" stroke="#000000" d="M 640 928 L 859.99609375 928 L 859.99609375 1016 L 640 1016 L 640 928 Z Z" stroke-miterlimit="10"/></g><g transform="translate(-254,-166) scale(1,1)"><path fill="none" stroke="#000000" d="M 640 953 L 859.99609375 953" stroke-miterlimit="10"/></g><g transform="translate(-254,-166) scale(1,1)"><path fill="none" stroke="#000000" d="M 640 991 L 859.99609375 991" stroke-miterlimit="10"/></g><g transform="translate(-254,-166) scale(1,1)"><g><path fill="none" stroke="none"/><text fill="#000000" stroke="none" font-family="Arial" font-size="13px" font-style="normal" font-weight="bold" text-decoration="none" x="698.350341796875" y="945.7099609375">XRepositoryImpl</text></g></g><g transform="translate(-254,-166) scale(1,1)"><g><path fill="none" stroke="none"/><text fill="#000000" stroke="none" font-family="Arial" font-size="13px" font-style="normal" font-weight="normal" text-decoration="none" x="645" y="968.7099609375">-datasource: XRemoteDatasource</text></g></g><g transform="translate(-254,-166) scale(1,1)"><g><path fill="none" stroke="none"/><text fill="#000000" stroke="none" font-family="Arial" font-size="13px" font-style="normal" font-weight="normal" text-decoration="none" x="645" y="983.7099609375">-localDatasource: XLocalDatasource</text></g></g><g transform="translate(-254,-166) scale(1,1)"><path fill="none" stroke="#000000" d="M 750 927 L 751 859" stroke-miterlimit="10"/></g><g transform="translate(-254,-166) scale(1,1)"><path fill="#FFFFFF" stroke="none" d="M 759.1192554106308 879.4469482216037 L 751 859 L 742.2830048169764 879.1993563011088"/></g><g transform="translate(-254,-166) scale(1,1)"><path fill="none" stroke="#000000" d="M 759.1192554106308 879.4469482216037 L 751 859 L 742.2830048169764 879.1993563011088 L 759.1192554106308 879.4469482216037" stroke-miterlimit="10"/></g><g transform="translate(-254,-166) scale(1,1)"><path fill="none" stroke="#000000" d="M 650 1087 L 710 1017" stroke-miterlimit="10"/></g><g transform="translate(-254,-166) scale(1,1)"><path fill="#000000" stroke="none" d="M 706.5823230204494 1027.455595825368 L 710 1017 L 700.1901147223913 1021.976560141318 L 695.6825897839686 1033.7036452520365"/></g><g transform="translate(-254,-166) scale(1,1)"><path fill="none" stroke="#000000" d="M 706.5823230204494 1027.455595825368 L 710 1017 L 700.1901147223913 1021.976560141318 L 695.6825897839686 1033.7036452520365 L 706.5823230204494 1027.455595825368" stroke-miterlimit="10"/></g><g transform="translate(-254,-166) scale(1,1)"><rect fill="#C0C0C0" stroke="none" x="1015" y="783" width="80.2353515625" height="72" opacity="0.2"/></g><g transform="translate(-254,-166) scale(1,1)"><rect fill="#ffffff" stroke="none" x="1008" y="776" width="80.2353515625" height="72"/></g><g transform="translate(-254,-166) scale(1,1)"><path fill="none" stroke="#000000" d="M 1008 776 L 1088.2353515625 776 L 1088.2353515625 848 L 1008 848 L 1008 776 Z Z" stroke-miterlimit="10"/></g><g transform="translate(-254,-166) scale(1,1)"><path fill="none" stroke="#000000" d="M 1008 801 L 1088.2353515625 801" stroke-miterlimit="10"/></g><g transform="translate(-254,-166) scale(1,1)"><path fill="none" stroke="#000000" d="M 1008 839 L 1088.2353515625 839" stroke-miterlimit="10"/></g><g transform="translate(-254,-166) scale(1,1)"><g><path fill="none" stroke="none"/><text fill="#000000" stroke="none" font-family="Arial" font-size="13px" font-style="normal" font-weight="bold" text-decoration="none" x="1025.726318359375" y="793.7099609375">XEntity</text></g></g><g transform="translate(-254,-166) scale(1,1)"><g><path fill="none" stroke="none"/><text fill="#000000" stroke="none" font-family="Arial" font-size="13px" font-style="normal" font-weight="normal" text-decoration="none" x="1013" y="816.471923828125">+prop1</text></g></g><g transform="translate(-254,-166) scale(1,1)"><g><path fill="none" stroke="none"/><text fill="#000000" stroke="none" font-family="Arial" font-size="13px" font-style="normal" font-weight="normal" text-decoration="none" x="1013" y="831.53857421875">+prop2</text></g></g><g transform="translate(-254,-166) scale(1,1)"><path fill="none" stroke="#000000" d="M 1007 812 L 857 813" stroke-miterlimit="10"/></g><g transform="translate(-254,-166) scale(1,1)"><rect fill="#C0C0C0" stroke="none" x="351" y="592" width="196.26708984375" height="57" opacity="0.2"/></g><g transform="translate(-254,-166) scale(1,1)"><rect fill="#C0C0C0" stroke="none" x="502.47802734375" y="559" width="53.7890625" height="37" opacity="0.2"/></g><g transform="translate(-254,-166) scale(1,1)"><rect fill="#ffffff" stroke="none" x="344" y="585" width="196.26708984375" height="57"/></g><g transform="translate(-254,-166) scale(1,1)"><path fill="none" stroke="#000000" d="M 344 585 L 540.26708984375 585 L 540.26708984375 642 L 344 642 L 344 585 Z Z" stroke-miterlimit="10"/></g><g transform="translate(-254,-166) scale(1,1)"><path fill="none" stroke="#000000" d="M 344 610 L 540.26708984375 610" stroke-miterlimit="10"/></g><g transform="translate(-254,-166) scale(1,1)"><path fill="none" stroke="#000000" d="M 344 620 L 540.26708984375 620" stroke-miterlimit="10"/></g><g transform="translate(-254,-166) scale(1,1)"><g><path fill="none" stroke="none"/><text fill="#000000" stroke="none" font-family="Arial" font-size="13px" font-style="normal" font-weight="bold" text-decoration="none" x="414.67041015625" y="602.53857421875">UseCase</text></g></g><g transform="translate(-254,-166) scale(1,1)"><g><path fill="none" stroke="none"/><text fill="#000000" stroke="none" font-family="Arial" font-size="13px" font-style="normal" font-weight="normal" text-decoration="none" x="349" y="635.7099609375">+call(): Either&lt;Failure; Type&gt;</text></g></g><g transform="translate(-254,-166) scale(1,1)"><rect fill="#ffffff" stroke="none" x="495.47802734375" y="552" width="53.7890625" height="37"/></g><g transform="translate(-254,-166) scale(1,1)"><path fill="none" stroke="#000000" d="M 495.47802734375 552 L 549.26708984375 552 L 549.26708984375 589 L 495.47802734375 589 L 495.47802734375 552 Z Z" stroke-miterlimit="10" stroke-dasharray="3"/></g><g transform="translate(-254,-166) scale(1,1)"><g><path fill="none" stroke="none"/><text fill="#000000" stroke="none" font-family="Arial" font-size="13px" font-style="normal" font-weight="normal" text-decoration="none" x="500.47802734375" y="567.471923828125">Type</text></g></g><g transform="translate(-254,-166) scale(1,1)"><g><path fill="none" stroke="none"/><text fill="#000000" stroke="none" font-family="Arial" font-size="13px" font-style="normal" font-weight="normal" text-decoration="none" x="500.47802734375" y="582.471923828125">Params</text></g></g><g transform="translate(-254,-166) scale(1,1)"><rect fill="#C0C0C0" stroke="none" x="687" y="623" width="148.43896484375" height="57" opacity="0.2"/></g><g transform="translate(-254,-166) scale(1,1)"><rect fill="#ffffff" stroke="none" x="680" y="616" width="148.43896484375" height="57"/></g><g transform="translate(-254,-166) scale(1,1)"><path fill="none" stroke="#000000" d="M 680 616 L 828.43896484375 616 L 828.43896484375 673 L 680 673 L 680 616 Z Z" stroke-miterlimit="10"/></g><g transform="translate(-254,-166) scale(1,1)"><path fill="none" stroke="#000000" d="M 680 641 L 828.43896484375 641" stroke-miterlimit="10"/></g><g transform="translate(-254,-166) scale(1,1)"><path fill="none" stroke="#000000" d="M 680 664 L 828.43896484375 664" stroke-miterlimit="10"/></g><g transform="translate(-254,-166) scale(1,1)"><g><path fill="none" stroke="none"/><text fill="#000000" stroke="none" font-family="Arial" font-size="13px" font-style="normal" font-weight="bold" text-decoration="none" x="722.4208984375" y="633.53857421875">XUseCase</text></g></g><g transform="translate(-254,-166) scale(1,1)"><g><path fill="none" stroke="none"/><text fill="#000000" stroke="none" font-family="Arial" font-size="13px" font-style="normal" font-weight="normal" text-decoration="none" x="685" y="656.7099609375">-repository: XRepository</text></g></g><g transform="translate(-254,-166) scale(1,1)"><path fill="none" stroke="#000000" d="M 679 633 L 551 613" stroke-miterlimit="10"/></g><g transform="translate(-254,-166) scale(1,1)"><path fill="#FFFFFF" stroke="none" d="M 572.3813945461251 607.8196556810447 L 551 613 L 569.7819856716046 624.4558724779756"/></g><g transform="translate(-254,-166) scale(1,1)"><path fill="none" stroke="#000000" d="M 572.3813945461251 607.8196556810447 L 551 613 L 569.7819856716046 624.4558724779756 L 572.3813945461251 607.8196556810447" stroke-miterlimit="10"/></g><g transform="translate(-254,-166) scale(1,1)"><path fill="none" stroke="#000000" d="M 753 767 L 754 674" stroke-miterlimit="10"/></g><g transform="translate(-254,-166) scale(1,1)"><path fill="#000000" stroke="none" d="M 758.1000046672381 684.2073484181068 L 754 674 L 749.6814558187234 684.1168263874775 L 753.7634545345489 695.9987282869437"/></g><g transform="translate(-254,-166) scale(1,1)"><path fill="none" stroke="#000000" d="M 758.1000046672381 684.2073484181068 L 754 674 L 749.6814558187234 684.1168263874775 L 753.7634545345489 695.9987282869437 L 758.1000046672381 684.2073484181068" stroke-miterlimit="10"/></g><g transform="translate(-254,-166) scale(1,1)"><rect fill="#C0C0C0" stroke="none" x="671" y="399" width="184" height="115" opacity="0.2"/></g><g transform="translate(-254,-166) scale(1,1)"><rect fill="#ffffff" stroke="none" x="664" y="392" width="184" height="115"/></g><g transform="translate(-254,-166) scale(1,1)"><path fill="none" stroke="#000000" d="M 664 392 L 848 392 L 848 507 L 664 507 L 664 392 Z Z" stroke-miterlimit="10"/></g><g transform="translate(-254,-166) scale(1,1)"><path fill="none" stroke="#000000" d="M 664 417 L 848 417" stroke-miterlimit="10"/></g><g transform="translate(-254,-166) scale(1,1)"><path fill="none" stroke="#000000" d="M 664 470 L 848 470" stroke-miterlimit="10"/></g><g transform="translate(-254,-166) scale(1,1)"><g><path fill="none" stroke="none"/><text fill="#000000" stroke="none" font-family="Arial" font-size="13px" font-style="normal" font-weight="bold" text-decoration="none" x="735.049560546875" y="409.53857421875">XStore</text></g></g><g transform="translate(-254,-166) scale(1,1)"><g><path fill="none" stroke="none"/><text fill="#000000" stroke="none" font-family="Arial" font-size="13px" font-style="normal" font-weight="normal" text-decoration="none" x="669" y="432.53857421875">+state: EnumStoreState</text></g></g><g transform="translate(-254,-166) scale(1,1)"><g><path fill="none" stroke="none"/><text fill="#000000" stroke="none" font-family="Arial" font-size="13px" font-style="normal" font-weight="normal" text-decoration="none" x="669" y="447.7099609375">+x: Entity?</text></g></g><g transform="translate(-254,-166) scale(1,1)"><g><path fill="none" stroke="none"/><text fill="#000000" stroke="none" font-family="Arial" font-size="13px" font-style="normal" font-weight="normal" text-decoration="none" x="669" y="462.53857421875">-useCase: XUseCase</text></g></g><g transform="translate(-254,-166) scale(1,1)"><g><path fill="none" stroke="none"/><text fill="#000000" stroke="none" font-family="Arial" font-size="13px" font-style="normal" font-weight="normal" text-decoration="none" x="669" y="485.7099609375">+dispatchSetAction(): void</text></g></g><g transform="translate(-254,-166) scale(1,1)"><g><path fill="none" stroke="none"/><text fill="#000000" stroke="none" font-family="Arial" font-size="13px" font-style="normal" font-weight="normal" text-decoration="none" x="669" y="500.7099609375">+dispatchGetAction(): void</text></g></g><g transform="translate(-254,-166) scale(1,1)"><path fill="none" stroke="#000000" d="M 754 615 L 755 508" stroke-miterlimit="10"/></g><g transform="translate(-254,-166) scale(1,1)"><path fill="#000000" stroke="none" d="M 759.114359808182 518.2015706324476 L 755 508 L 750.6956919476497 518.1228914935641 L 754.794401502053 529.9990392803331"/></g><g transform="translate(-254,-166) scale(1,1)"><path fill="none" stroke="#000000" d="M 759.114359808182 518.2015706324476 L 755 508 L 750.6956919476497 518.1228914935641 L 754.794401502053 529.9990392803331 L 759.114359808182 518.2015706324476" stroke-miterlimit="10"/></g><g transform="translate(-254,-166) scale(1,1)"><rect fill="#C0C0C0" stroke="none" x="711" y="231" width="100.39990234375" height="70" opacity="0.2"/></g><g transform="translate(-254,-166) scale(1,1)"><rect fill="#ffffff" stroke="none" x="704" y="224" width="100.39990234375" height="70"/></g><g transform="translate(-254,-166) scale(1,1)"><path fill="none" stroke="#000000" d="M 704 224 L 804.39990234375 224 L 804.39990234375 294 L 704 294 L 704 224 Z Z" stroke-miterlimit="10"/></g><g transform="translate(-254,-166) scale(1,1)"><path fill="none" stroke="#000000" d="M 704 249 L 804.39990234375 249" stroke-miterlimit="10"/></g><g transform="translate(-254,-166) scale(1,1)"><path fill="none" stroke="#000000" d="M 704 272 L 804.39990234375 272" stroke-miterlimit="10"/></g><g transform="translate(-254,-166) scale(1,1)"><g><path fill="none" stroke="none"/><text fill="#000000" stroke="none" font-family="Arial" font-size="13px" font-style="normal" font-weight="bold" text-decoration="none" x="738.6640625" y="241.471923828125">Page</text></g></g><g transform="translate(-254,-166) scale(1,1)"><g><path fill="none" stroke="none"/><text fill="#000000" stroke="none" font-family="Arial" font-size="13px" font-style="normal" font-weight="normal" text-decoration="none" x="709" y="264.53857421875">-store: XStore</text></g></g><g transform="translate(-254,-166) scale(1,1)"><g><path fill="none" stroke="none"/><text fill="#000000" stroke="none" font-family="Arial" font-size="13px" font-style="normal" font-weight="normal" text-decoration="none" x="709" y="287.7099609375">+build(): Widget</text></g></g><g transform="translate(-254,-166) scale(1,1)"><path fill="none" stroke="#000000" d="M 755 391 L 754 295" stroke-miterlimit="10"/></g><g transform="translate(-254,-166) scale(1,1)"><path fill="#000000" stroke="none" d="M 758.3151448472088 305.1182767775747 L 754 295 L 749.8965660599181 305.20597030660895 L 754.229154234591 316.9988065207358"/></g><g transform="translate(-254,-166) scale(1,1)"><path fill="none" stroke="#000000" d="M 758.3151448472088 305.1182767775747 L 754 295 L 749.8965660599181 305.20597030660895 L 754.229154234591 316.9988065207358 L 758.3151448472088 305.1182767775747" stroke-miterlimit="10"/></g><g transform="translate(-254,-166) scale(1,1)"><rect fill="#C0C0C0" stroke="none" x="919" y="183" width="104" height="57" opacity="0.2"/></g><g transform="translate(-254,-166) scale(1,1)"><rect fill="#ffffff" stroke="none" x="912" y="176" width="104" height="57"/></g><g transform="translate(-254,-166) scale(1,1)"><path fill="none" stroke="#000000" d="M 912 176 L 1016 176 L 1016 233 L 912 233 L 912 176 Z Z" stroke-miterlimit="10"/></g><g transform="translate(-254,-166) scale(1,1)"><path fill="none" stroke="#000000" d="M 912 201 L 1016 201" stroke-miterlimit="10"/></g><g transform="translate(-254,-166) scale(1,1)"><path fill="none" stroke="#000000" d="M 912 211 L 1016 211" stroke-miterlimit="10"/></g><g transform="translate(-254,-166) scale(1,1)"><g><path fill="none" stroke="none"/><text fill="#000000" stroke="none" font-family="Arial" font-size="13px" font-style="normal" font-weight="bold" text-decoration="none" x="938.78076171875" y="193.7099609375">Widget2</text></g></g><g transform="translate(-254,-166) scale(1,1)"><g><path fill="none" stroke="none"/><text fill="#000000" stroke="none" font-family="Arial" font-size="13px" font-style="normal" font-weight="normal" text-decoration="none" x="917" y="226.7099609375">+build(): Widget</text></g></g><g transform="translate(-254,-166) scale(1,1)"><rect fill="#C0C0C0" stroke="none" x="919" y="263" width="107.6298828125" height="57" opacity="0.2"/></g><g transform="translate(-254,-166) scale(1,1)"><rect fill="#ffffff" stroke="none" x="912" y="256" width="107.6298828125" height="57"/></g><g transform="translate(-254,-166) scale(1,1)"><path fill="none" stroke="#000000" d="M 912 256 L 1019.6298828125 256 L 1019.6298828125 313 L 912 313 L 912 256 Z Z" stroke-miterlimit="10"/></g><g transform="translate(-254,-166) scale(1,1)"><path fill="none" stroke="#000000" d="M 912 281 L 1019.6298828125 281" stroke-miterlimit="10"/></g><g transform="translate(-254,-166) scale(1,1)"><path fill="none" stroke="#000000" d="M 912 291 L 1019.6298828125 291" stroke-miterlimit="10"/></g><g transform="translate(-254,-166) scale(1,1)"><g><path fill="none" stroke="none"/><text fill="#000000" stroke="none" font-family="Arial" font-size="13px" font-style="normal" font-weight="bold" text-decoration="none" x="939.5166015625" y="273.7099609375">WidgetN</text></g></g><g transform="translate(-254,-166) scale(1,1)"><g><path fill="none" stroke="none"/><text fill="#000000" stroke="none" font-family="Arial" font-size="13px" font-style="normal" font-weight="normal" text-decoration="none" x="917" y="306.7099609375">+build(): Widget</text></g></g><g transform="translate(-254,-166) scale(1,1)"><path fill="none" stroke="#000000" d="M 911 218 L 805 246" stroke-miterlimit="10"/></g><g transform="translate(-254,-166) scale(1,1)"><path fill="#000000" stroke="none" d="M 813.7505849604432 239.33462207747644 L 805 246 L 815.900731893066 247.47446403669093 L 826.2704320877128 240.3813952975853"/></g><g transform="translate(-254,-166) scale(1,1)"><path fill="none" stroke="#000000" d="M 813.7505849604432 239.33462207747644 L 805 246 L 815.900731893066 247.47446403669093 L 826.2704320877128 240.3813952975853 L 813.7505849604432 239.33462207747644" stroke-miterlimit="10"/></g><g transform="translate(-254,-166) scale(1,1)"><path fill="none" stroke="#000000" d="M 911 278 L 805 265" stroke-miterlimit="10"/></g><g transform="translate(-254,-166) scale(1,1)"><path fill="#000000" stroke="none" d="M 815.5995206011826 262.0588840510606 L 805 265 L 814.5746759261737 270.4153098626718 L 826.8363929683763 267.67804819423486"/></g><g transform="translate(-254,-166) scale(1,1)"><path fill="none" stroke="#000000" d="M 815.5995206011826 262.0588840510606 L 805 265 L 814.5746759261737 270.4153098626718 L 826.8363929683763 267.67804819423486 L 815.5995206011826 262.0588840510606" stroke-miterlimit="10"/></g><g transform="translate(-254,-166) scale(1,1)"><rect fill="#C0C0C0" stroke="none" x="839" y="1095" width="160" height="104" opacity="0.2"/></g><g transform="translate(-254,-166) scale(1,1)"><rect fill="#ffffff" stroke="none" x="832" y="1088" width="160" height="104"/></g><g transform="translate(-254,-166) scale(1,1)"><path fill="none" stroke="#000000" d="M 832 1088 L 992 1088 L 992 1192 L 832 1192 L 832 1088 Z Z" stroke-miterlimit="10"/></g><g transform="translate(-254,-166) scale(1,1)"><path fill="none" stroke="#000000" d="M 832 1113 L 992 1113" stroke-miterlimit="10"/></g><g transform="translate(-254,-166) scale(1,1)"><path fill="none" stroke="#000000" d="M 832 1123 L 992 1123" stroke-miterlimit="10"/></g><g transform="translate(-254,-166) scale(1,1)"><g><path fill="none" stroke="none"/><text fill="#000000" stroke="none" font-family="Arial" font-size="13px" font-style="normal" font-weight="bold" text-decoration="none" x="855.28369140625" y="1105.7099609375">XLocalDatasource</text></g></g><g transform="translate(-254,-166) scale(1,1)"><g><path fill="none" stroke="none"/><text fill="#000000" stroke="none" font-family="Arial" font-size="13px" font-style="normal" font-weight="normal" text-decoration="none" x="837" y="1138.7099609375">+getX(): XModel</text></g></g><g transform="translate(-254,-166) scale(1,1)"><g><path fill="none" stroke="none"/><text fill="#000000" stroke="none" font-family="Arial" font-size="13px" font-style="normal" font-weight="normal" text-decoration="none" x="837" y="1153.7099609375">+cacheX(): XModel</text></g></g><g transform="translate(-254,-166) scale(1,1)"><path fill="none" stroke="#000000" d="M 861 1087 L 793 1017" stroke-miterlimit="10"/></g><g transform="translate(-254,-166) scale(1,1)"><path fill="#000000" stroke="none" d="M 803.1006066443656 1021.3563454197064 L 793 1017 L 797.0618060648635 1027.2226088397942 L 808.3292850537915 1032.780146378903"/></g><g transform="translate(-254,-166) scale(1,1)"><path fill="none" stroke="#000000" d="M 803.1006066443656 1021.3563454197064 L 793 1017 L 797.0618060648635 1027.2226088397942 L 808.3292850537915 1032.780146378903 L 803.1006066443656 1021.3563454197064" stroke-miterlimit="10"/></g><g transform="translate(-254,-166) scale(1,1)"><path fill="none" stroke="#000000" d="M 801 1240 L 853 1193" stroke-miterlimit="10"/></g><g transform="translate(-254,-166) scale(1,1)"><path fill="none" stroke="#000000" d="M 801 1280 L 1048 1280 L 1048 849" stroke-miterlimit="10"/></g><g transform="translate(-254,-166) scale(1,1)"><path fill="#FFFFFF" stroke="none" d="M 1056.419035512032 869.3253497152483 L 1048 849 L 1039.580964487968 869.3253497152483"/></g><g transform="translate(-254,-166) scale(1,1)"><path fill="none" stroke="#000000" d="M 1056.419035512032 869.3253497152483 L 1048 849 L 1039.580964487968 869.3253497152483 L 1056.419035512032 869.3253497152483" stroke-miterlimit="10"/></g><g transform="translate(-254,-166) scale(1,1)"><rect fill="#C0C0C0" stroke="none" x="271" y="1191" width="162.8798828125" height="57" opacity="0.2"/></g><g transform="translate(-254,-166) scale(1,1)"><rect fill="#ffffff" stroke="none" x="264" y="1184" width="162.8798828125" height="57"/></g><g transform="translate(-254,-166) scale(1,1)"><path fill="none" stroke="#000000" d="M 264 1184 L 426.8798828125 1184 L 426.8798828125 1241 L 264 1241 L 264 1184 Z Z" stroke-miterlimit="10"/></g><g transform="translate(-254,-166) scale(1,1)"><path fill="none" stroke="#000000" d="M 264 1209 L 426.8798828125 1209" stroke-miterlimit="10"/></g><g transform="translate(-254,-166) scale(1,1)"><path fill="none" stroke="#000000" d="M 264 1232 L 426.8798828125 1232" stroke-miterlimit="10"/></g><g transform="translate(-254,-166) scale(1,1)"><g><path fill="none" stroke="none"/><text fill="#000000" stroke="none" font-family="Arial" font-size="13px" font-style="normal" font-weight="bold" text-decoration="none" x="268.5" y="1201.7099609375">XRemoteDatasourceImpl</text></g></g><g transform="translate(-254,-166) scale(1,1)"><g><path fill="none" stroke="none"/><text fill="#000000" stroke="none" font-family="Arial" font-size="13px" font-style="normal" font-weight="normal" text-decoration="none" x="269" y="1224.7099609375">-dio: Dio</text></g></g><g transform="translate(-254,-166) scale(1,1)"><rect fill="#C0C0C0" stroke="none" x="1111" y="1191" width="149.15625" height="57" opacity="0.2"/></g><g transform="translate(-254,-166) scale(1,1)"><rect fill="#ffffff" stroke="none" x="1104" y="1184" width="149.15625" height="57"/></g><g transform="translate(-254,-166) scale(1,1)"><path fill="none" stroke="#000000" d="M 1104 1184 L 1253.15625 1184 L 1253.15625 1241 L 1104 1241 L 1104 1184 Z Z" stroke-miterlimit="10"/></g><g transform="translate(-254,-166) scale(1,1)"><path fill="none" stroke="#000000" d="M 1104 1209 L 1253.15625 1209" stroke-miterlimit="10"/></g><g transform="translate(-254,-166) scale(1,1)"><path fill="none" stroke="#000000" d="M 1104 1232 L 1253.15625 1232" stroke-miterlimit="10"/></g><g transform="translate(-254,-166) scale(1,1)"><g><path fill="none" stroke="none"/><text fill="#000000" stroke="none" font-family="Arial" font-size="13px" font-style="normal" font-weight="bold" text-decoration="none" x="1108.5" y="1201.7099609375">XLocalDatasourceImpl</text></g></g><g transform="translate(-254,-166) scale(1,1)"><g><path fill="none" stroke="none"/><text fill="#000000" stroke="none" font-family="Arial" font-size="13px" font-style="normal" font-weight="normal" text-decoration="none" x="1109" y="1224.7099609375">-db: Database</text></g></g><g transform="translate(-254,-166) scale(1,1)"><path fill="none" stroke="#000000" d="M 993 1162 L 1103 1192" stroke-miterlimit="10"/></g><g transform="translate(-254,-166) scale(1,1)"><path fill="#FFFFFF" stroke="none" d="M 1081.1756431575263 1194.7744275828306 L 1103 1192 L 1085.6060327239213 1178.5296658393825"/></g><g transform="translate(-254,-166) scale(1,1)"><path fill="none" stroke="#000000" d="M 1081.1756431575263 1194.7744275828306 L 1103 1192 L 1085.6060327239213 1178.5296658393825 L 1081.1756431575263 1194.7744275828306" stroke-miterlimit="10"/></g><g transform="translate(-254,-166) scale(1,1)"><path fill="none" stroke="#000000" d="M 527 1159 L 428 1188" stroke-miterlimit="10"/></g><g transform="translate(-254,-166) scale(1,1)"><path fill="#FFFFFF" stroke="none" d="M 445.13897242880137 1174.2066819044587 L 428 1188 L 449.87243238739507 1190.3657348665545"/></g><g transform="translate(-254,-166) scale(1,1)"><path fill="none" stroke="#000000" d="M 445.13897242880137 1174.2066819044587 L 428 1188 L 449.87243238739507 1190.3657348665545 L 445.13897242880137 1174.2066819044587" stroke-miterlimit="10"/></g><g transform="translate(-254,-166) scale(1,1)"><path fill="none" stroke="#000000" d="M 1048 775 L 1048 448 L 849 449" stroke-miterlimit="10"/></g></g></svg>